<svg width="124" height="44" viewBox="0 0 124 44" fill="none" xmlns="http://www.w3.org/2000/svg">
<g clip-path="url(#clip0_72_2766)">
<path d="M16.926 13.0853C18.9054 13.068 20.8648 13.4818 22.6682 14.2978C24.4133 15.0829 25.9829 16.2106 27.284 17.6139C28.604 19.0425 29.6392 20.7101 30.3339 22.5272C31.7914 26.4006 31.7914 30.6719 30.3339 34.5453C29.6391 36.3637 28.6039 38.0329 27.284 39.4633C25.9816 40.8652 24.4123 41.9927 22.6682 42.7794C20.865 43.597 18.9058 44.0132 16.926 43.9995C15.2172 44.0045 13.5221 43.6938 11.926 43.083C10.3349 42.4719 9.08196 41.692 8.16709 40.7434L6.97373 43.2906H0V0.0715793H8.16709V16.3059C10.4153 14.1588 13.3349 13.0853 16.926 13.0853ZM15.8019 36.7206C16.8347 36.7281 17.8563 36.5055 18.7924 36.0688C19.7106 35.6418 20.5429 35.0503 21.2482 34.3236C21.97 33.584 22.5379 32.7084 22.9188 31.7476C23.7081 29.6994 23.7081 27.4309 22.9188 25.3828C22.5437 24.4105 21.9754 23.5244 21.2482 22.7781C20.5436 22.0499 19.7112 21.4576 18.7924 21.0306C17.8582 20.5893 16.8374 20.3617 15.8043 20.3646C14.7906 20.3577 13.7819 20.5075 12.8138 20.8086C11.9079 21.0928 11.0781 21.5784 10.3865 22.2291C9.65662 22.9428 9.09983 23.8142 8.75886 24.7765C8.33161 26.0231 8.13116 27.3362 8.167 28.6536C8.14055 29.8737 8.34125 31.0881 8.75886 32.2347C9.10938 33.1749 9.66548 34.0248 10.3865 34.7224C11.0849 35.378 11.9113 35.882 12.8138 36.2027C13.7728 36.5443 14.784 36.7156 15.8019 36.7088V36.7206ZM35.1575 0H43.327V43.2835H35.1575V0ZM57.2338 43.2835H49.0668V13.9187H57.2339L57.2338 43.2835ZM53.1503 9.8886C52.5578 9.89498 51.97 9.78295 51.4213 9.55907C50.8726 9.3352 50.3741 9.00399 49.9551 8.58487C49.5361 8.16575 49.205 7.66715 48.9811 7.11832C48.7573 6.56949 48.6452 5.98148 48.6516 5.38876C48.6409 4.79078 48.7508 4.19678 48.9747 3.64222C49.1986 3.08766 49.5319 2.5839 49.9546 2.16101C50.3731 1.73902 50.8709 1.40409 51.4194 1.17552C51.9679 0.946946 52.5562 0.829267 53.1504 0.829267C53.7445 0.829267 54.3328 0.946946 54.8813 1.17552C55.4298 1.40409 55.9276 1.73902 56.3461 2.16101C56.7689 2.58391 57.1021 3.08767 57.326 3.64223C57.5499 4.19679 57.6597 4.79079 57.6491 5.38876C57.6555 5.98151 57.5435 6.56956 57.3196 7.11843C57.0958 7.6673 56.7647 8.16594 56.3456 8.5851C55.9266 9.00426 55.4281 9.3355 54.8794 9.5594C54.3307 9.7833 53.7429 9.89534 53.1503 9.88896V9.8886ZM78.6013 13.9187C79.8391 13.9366 81.0708 14.0969 82.272 14.3962C83.7291 14.7383 85.0923 15.399 86.2638 16.3307C87.4353 17.2624 88.386 18.4421 89.0477 19.785C89.8559 21.3255 90.2609 23.319 90.2625 25.7654V43.2835H82.0331V26.0513C82.0575 25.2584 81.9059 24.4699 81.5892 23.7427C81.3217 23.1485 80.9118 22.6294 80.3959 22.2315C79.8915 21.8516 79.3198 21.5706 78.711 21.403C78.0945 21.2279 77.4569 21.1387 76.816 21.138C76.2447 21.146 75.6773 21.2353 75.1311 21.403C74.5116 21.5846 73.9296 21.8757 73.4127 22.2625C72.8656 22.6766 72.4118 23.2013 72.0809 23.8024C71.7129 24.4938 71.5296 25.2684 71.5485 26.0514V43.2835H63.3889V13.9187H70.3746L71.5682 16.1675C72.5521 15.4787 73.6278 14.9314 74.7636 14.5415C75.9984 14.1182 77.2961 13.9076 78.6013 13.9187V13.9187ZM111.627 26.1159L124 43.2837H114.234L106.48 31.5615L103.58 34.6885V43.283H95.4104V0.0715793H103.58V24.0387L113.107 13.9187H123.052L111.627 26.1159Z" fill="url(#paint0_linear_72_2766)"/>
</g>
<defs>
<linearGradient id="paint0_linear_72_2766" x1="-7.81198" y1="-8.97596" x2="-7.56398" y2="-8.97596" gradientUnits="userSpaceOnUse">
<stop stop-color="#3D9EFF"/>
<stop offset="1" stop-color="#3D76F8"/>
</linearGradient>
<clipPath id="clip0_72_2766">
<rect width="124" height="44" fill="white"/>
</clipPath>
</defs>
</svg>
